<svg xmlns="http://www.w3.org/2000/svg" version="1.1" xmlns:xlink="http://www.w3.org/1999/xlink" width="200" height="200"><svg xmlns="http://www.w3.org/2000/svg" version="1.1" xmlns:xlink="http://www.w3.org/1999/xlink" viewBox="0 0 200 200"><rect width="200" height="200" fill="url('#gradient')"></rect><defs><linearGradient id="SvgjsLinearGradient1001" gradientTransform="rotate(74 0.5 0.5)"><stop offset="0%" stop-color="#dee90b"></stop><stop offset="100%" stop-color="#d9e241"></stop></linearGradient></defs><g><g fill="#1b3855" transform="matrix(2.178723404255319,0,0,2.178723404255319,19.53614839315415,116.12489649184207)" stroke="#0e5278" stroke-width="0.3"><path d="M9.17-4.81L12.58-4.81Q12.51-3.33 11.78-2.19Q11.04-1.05 9.72-0.43Q8.40 0.20 6.70 0.20L6.70 0.20Q3.90 0.20 2.29-1.63Q0.67-3.46 0.67-6.79L0.67-6.79L0.67-7.49Q0.67-9.58 1.40-11.15Q2.13-12.71 3.50-13.57Q4.86-14.42 6.66-14.42L6.66-14.42Q9.25-14.42 10.82-13.06Q12.39-11.70 12.61-9.31L12.61-9.31L9.19-9.31Q9.15-10.61 8.54-11.17Q7.92-11.74 6.66-11.74L6.66-11.74Q5.38-11.74 4.79-10.78Q4.19-9.82 4.16-7.72L4.16-7.72L4.16-6.72Q4.16-4.44 4.73-3.47Q5.30-2.49 6.70-2.49L6.70-2.49Q7.88-2.49 8.51-3.05Q9.13-3.60 9.17-4.81L9.17-4.81ZM20.50-10.64L20.44-7.59L19.36-7.67Q17.80-7.67 17.36-6.69L17.36-6.69L17.36 0L14.07 0L14.07-10.57L17.16-10.57L17.27-9.21Q18.10-10.76 19.58-10.76L19.58-10.76Q20.11-10.76 20.50-10.64L20.50-10.64ZM26.55 0.20L26.55 0.20Q24.12 0.20 22.62-1.25Q21.11-2.71 21.11-5.03L21.11-5.03L21.11-5.30Q21.11-6.92 21.71-8.16Q22.31-9.40 23.47-10.08Q24.62-10.76 26.20-10.76L26.20-10.76Q28.43-10.76 29.72-9.38Q31.01-8.00 31.01-5.53L31.01-5.53L31.01-4.25L24.46-4.25Q24.64-3.36 25.23-2.85Q25.83-2.34 26.78-2.34L26.78-2.34Q28.34-2.34 29.22-3.44L29.22-3.44L30.72-1.66Q30.11-0.81 28.98-0.31Q27.85 0.20 26.55 0.20ZM26.18-8.22L26.18-8.22Q24.74-8.22 24.46-6.31L24.46-6.31L27.78-6.31L27.78-6.56Q27.80-7.35 27.38-7.79Q26.96-8.22 26.18-8.22ZM31.91-5.36L31.91-5.36Q31.91-7.87 33.00-9.32Q34.08-10.76 36.03-10.76L36.03-10.76Q37.44-10.76 38.41-9.65L38.41-9.65L38.41-15L41.71-15L41.71 0L38.75 0L38.58-1.13Q37.57 0.20 36.01 0.20L36.01 0.20Q34.12 0.20 33.02-1.25Q31.91-2.70 31.91-5.36ZM35.21-5.76L35.21-5.16Q35.21-2.34 36.85-2.34L36.85-2.34Q37.94-2.34 38.41-3.26L38.41-3.26L38.41-7.29Q37.96-8.22 36.87-8.22L36.87-8.22Q35.34-8.22 35.21-5.76L35.21-5.76ZM47.05-10.57L47.05 0L43.75 0L43.75-10.57L47.05-10.57ZM43.55-13.29L43.55-13.29Q43.55-13.99 44.06-14.44Q44.57-14.89 45.38-14.89Q46.19-14.89 46.70-14.44Q47.21-13.99 47.21-13.29Q47.21-12.59 46.70-12.14Q46.19-11.69 45.38-11.69Q44.57-11.69 44.06-12.14Q43.55-12.59 43.55-13.29ZM49.62-13.19L52.91-13.19L52.91-10.57L54.65-10.57L54.65-8.28L52.91-8.28L52.91-3.45Q52.91-2.85 53.13-2.62Q53.34-2.38 53.97-2.38L53.97-2.38Q54.46-2.38 54.79-2.44L54.79-2.44L54.79-0.09Q53.91 0.20 52.94 0.20L52.94 0.20Q51.24 0.20 50.43-0.61Q49.62-1.41 49.62-3.04L49.62-3.04L49.62-8.28L48.27-8.28L48.27-10.57L49.62-10.57L49.62-13.19ZM65 0L64.17-2.66L59.47-2.66L58.65 0L54.99 0L60.21-14.22L63.43-14.22L68.68 0L65 0ZM61.82-10.23L60.29-5.30L63.35-5.30L61.82-10.23ZM73.04-10.57L73.04 0L69.74 0L69.74-10.57L73.04-10.57ZM69.54-13.29L69.54-13.29Q69.54-13.99 70.05-14.44Q70.56-14.89 71.37-14.89Q72.18-14.89 72.69-14.44Q73.19-13.99 73.19-13.29Q73.19-12.59 72.69-12.14Q72.18-11.69 71.37-11.69Q70.56-11.69 70.05-12.14Q69.54-12.59 69.54-13.29Z"></path></g></g></svg><style>@media (prefers-color-scheme: light) { :root { filter: none; } }
@media (prefers-color-scheme: dark) { :root { filter: none; } }
</style></svg>